<?xml version="1.0" encoding="UTF-8" standalone="no"?>
<svg
   xmlns:dc="http://purl.org/dc/elements/1.1/"
   xmlns:cc="http://creativecommons.org/ns#"
   xmlns:rdf="http://www.w3.org/1999/02/22-rdf-syntax-ns#"
   xmlns:svg="http://www.w3.org/2000/svg"
   xmlns="http://www.w3.org/2000/svg"
   xmlns:sodipodi="http://sodipodi.sourceforge.net/DTD/sodipodi-0.dtd"
   xmlns:inkscape="http://www.inkscape.org/namespaces/inkscape"
   viewBox="0 0 100 100"
   version="1.1"
   x="0px"
   y="0px"
   id="svg3834"
   sodipodi:docname="noun_stick_1643205.svg"
   inkscape:version="0.92.4 5da689c313, 2019-01-14">
  <metadata
     id="metadata3840">
    <rdf:RDF>
      <cc:Work
         rdf:about="">
        <dc:format>image/svg+xml</dc:format>
        <dc:type
           rdf:resource="http://purl.org/dc/dcmitype/StillImage" />
      </cc:Work>
    </rdf:RDF>
  </metadata>
  <defs
     id="defs3838" />
  <sodipodi:namedview
     pagecolor="#ffffff"
     bordercolor="#666666"
     borderopacity="1"
     objecttolerance="10"
     gridtolerance="10"
     guidetolerance="10"
     inkscape:pageopacity="0"
     inkscape:pageshadow="2"
     inkscape:window-width="1920"
     inkscape:window-height="1016"
     id="namedview3836"
     showgrid="false"
     inkscape:zoom="2.36"
     inkscape:cx="-8.4745763"
     inkscape:cy="50"
     inkscape:window-x="0"
     inkscape:window-y="27"
     inkscape:window-maximized="1"
     inkscape:current-layer="svg3834" />
  <title
     id="title3824">stick</title>
  <g
     id="g3832"
     transform="translate(-5.9006792,-0.41408189)"
     style="fill:none;fill-rule:evenodd;stroke:none;stroke-width:1">
    <g
       id="g3830"
       style="fill:#000000">
      <path
         d="m 46.9735,32.3746 c -3.108,1.116 -5.65,2.57 -7.718,4.775 -1.145,1.222 -1.181,1.512 -0.495,2.998 0.503,1.089 1.132,2.134 1.5,3.266 0.542,1.662 1.327,3.404 1.245,5.074 -0.146,2.979 -1.348,5.728 -3.24,8.11 -1.926,2.424 -3.691,4.997 -5.799,7.249 -3.683,3.935 -6.571,8.455 -9.82,12.708 -1.069,1.399 -2.22,2.741 -3.225,4.185 -1.651,2.37 -1.613,2.85 0.087,5.149 0.333,0.45 0.735,0.855 1.135,1.251 0.952,0.94 1.911,1.874 2.89,2.787 0.512,0.479 1.063,0.919 1.613,1.357 0.635,0.504 1.309,0.552 1.918,-0.013 0.819,-0.763 1.68,-1.505 2.374,-2.375 2.197,-2.753 4.081,-5.803 6.53,-8.302 5.597,-5.708 10.443,-12.029 15.504,-18.177 0.492,-0.598 0.964,-1.214 1.435,-1.829 2.956,-3.864 5.84,-7.784 8.886,-11.575 2.027,-2.522 4.369,-4.788 6.405,-7.304 1.488,-1.841 3.296,-2.827 5.6,-2.942 1.754,-0.087 3.536,0.091 5.266,-0.142 3.904,-0.528 7.781,-1.256 11.676,-1.864 1.232,-0.193 1.809,-0.835 1.996,-2.067 0.305,-2.017 0.769,-4.01 1.118,-6.022 0.138,-0.799 0.147,-1.62 0.226,-2.562 -0.588,0 -0.94,-0.059 -1.265,0.01 -3.304,0.703 -6.604,1.424 -9.903,2.147 -0.894,0.196 -1.776,0.471 -2.679,0.602 -0.656,0.094 -1.051,-0.564 -0.71,-1.121 0.179,-0.294 0.458,-0.536 0.72,-0.769 3.823,-3.416 6.279,-7.962 9.695,-11.721 1.39,-1.53 1.048,-2.442 -0.818,-3.467 -0.246,-0.136 -0.507,-0.245 -0.768,-0.352 -1.956,-0.797 -3.953,-1.505 -5.86,-2.405 -2.662,-1.256 -3.335,-1.155 -5.221,1.13 -1.074,1.302 -2.099,2.669 -3.315,3.829 -3.322,3.169 -6.43,6.515 -9.165,10.21 -1.005,1.357 -2.104,2.65 -3.228,3.91 -2.439,2.734 -4.951,5.401 -7.369,8.152 -0.926,1.052 -1.621,2.305 -2.521,3.382 -1.03,1.234 -1.548,1.067 -2.106,-0.46 -0.821,-2.242 -1.697,-4.463 -2.594,-6.812 m 0.652,-2.216 c 0.986,2.429 1.918,4.726 2.981,7.343 0.802,-1.056 1.384,-1.744 1.879,-2.49 2.555,-3.851 5.998,-6.916 9.107,-10.272 5.31,-5.732 10.697,-11.392 16.029,-17.104 0.709,-0.76 1.352,-1.323 2.527,-1.125 2.919,0.492 11.152,3.394 13.321,5.961 -0.829,2.581 -2.771,4.58 -4.247,6.848 -1.442,2.217 -2.998,4.36 -4.773,6.925 2.701,-0.544 5.051,-0.885 7.325,-1.504 3.519,-0.958 4.105,-0.561 4.065,3.093 -0.036,3.38 -0.984,6.521 -2.272,9.606 -0.36,0.862 -0.914,1.18 -1.735,1.278 -4.899,0.588 -9.803,1.14 -14.696,1.782 -2.205,0.289 -4.552,0.281 -6.267,2.076 -0.484,0.506 -0.887,1.088 -1.359,1.608 -1.42,1.563 -2.91,3.066 -4.27,4.68 -1.952,2.314 -3.831,4.69 -5.707,7.066 -2.927,3.705 -5.738,7.506 -8.757,11.132 -3.651,4.384 -7.497,8.603 -11.204,12.941 -3.34,3.91 -6.603,7.886 -9.909,11.826 -0.406,0.484 -0.827,0.966 -1.3,1.381 -1.629,1.43 -2.521,1.512 -4.326,0.313 -1.872,-1.243 -3.831,-2.403 -5.517,-3.87 -3.119,-2.711 -3.337,-5.502 -0.935,-8.914 0.69,-0.979 1.499,-1.872 2.228,-2.824 1.963,-2.568 3.912,-5.147 5.865,-7.723 1.404,-1.851 2.802,-3.707 4.213,-5.553 1.49,-1.95 2.993,-3.89 4.491,-5.834 0.987,-1.282 1.907,-2.622 2.976,-3.833 1.811,-2.054 2.429,-4.341 1.93,-7.042 -0.596,-3.227 -1.709,-6.246 -3.232,-9.133 -1.042,-1.973 -0.976,-2.184 0.821,-3.413 1.289,-0.882 2.666,-1.474 4.168,-1.963 1.783,-0.579 3.409,-1.642 5.103,-2.498 0.421,-0.213 0.839,-0.433 1.477,-0.764"
         id="path3826"
         inkscape:connector-curvature="0" />
      <path
         d="m 50.6141,52.9092 c 0.533,0.944 -0.136,1.407 -0.537,1.912 -2.446,3.083 -4.945,6.125 -7.359,9.233 -2.715,3.498 -5.351,7.057 -8.039,10.577 -0.48,0.628 -1.044,1.193 -1.737,1.639 4.884,-8.236 11.51,-15.162 16.931,-22.979 0.128,-0.184 0.446,-0.236 0.741,-0.382 z m 7.4619,-8.4716 c 1.446,-1.84 2.836,-3.674 4.294,-5.452 3.569,-4.351 7.169,-8.678 10.76,-13.012 0.492,-0.595 0.964,-1.22 1.535,-1.729 0.222,-0.199 0.692,-0.118 1.497,-0.222 -5.608,7.501 -12.023,13.73 -17.515,20.727 -0.012,0.016 -0.206,-0.111 -0.571,-0.312 z M 75.8134,17.439 c 0.168,0.495 0.378,0.787 0.305,0.957 -0.248,0.573 -0.482,1.23 -0.924,1.629 -4.167,3.758 -7.124,8.516 -10.655,12.797 -0.176,0.214 -0.276,0.491 -0.651,0.529 3.102,-5.876 7.602,-10.66 11.925,-15.912 z M 22.1259,82.148 c 3.559,-4.652 7.114,-9.306 10.688,-13.946 0.085,-0.111 0.372,-0.067 0.97,-0.155 -1.991,2.658 -3.749,5.095 -5.604,7.455 -1.853,2.354 -3.123,5.243 -6.054,6.646 z M 79.9344,30.8013 c 2.576,-1.225 9.125,-1.901 10.737,-1.051 -0.752,0.907 -1.846,0.795 -2.696,0.695 -2.016,-0.238 -3.901,0.213 -5.821,0.62 -0.703,0.148 -1.435,0.164 -2.154,0.241 -0.022,-0.169 -0.044,-0.337 -0.066,-0.505 z M 45.2245,53.5518 c 2.097,-2.75 4.194,-5.5 6.496,-8.519 0.082,0.57 0.263,0.947 0.144,1.132 -1.806,2.807 -3.827,5.442 -6.107,7.863 -0.178,-0.159 -0.355,-0.317 -0.533,-0.476 z M 82.9706,13.9542 c -0.693,2.401 -3.03,5.194 -4.857,5.561 1.455,-1.967 2.747,-3.736 4.078,-5.475 0.102,-0.134 0.477,-0.059 0.779,-0.086 z m -7.7969,20.7851 c 1.074,-0.794 6.117,-1.279 7.835,-0.753 -1.148,0.667 -6.454,1.176 -7.835,0.753 z M 44.0468,44.378 c -1.294,-1.253 -1.651,-2.856 -1.695,-4.576 1.213,1.269 1.55,2.88 1.695,4.576 z m 2.248,-1.9898 c -0.618,-1.501 -1.237,-3.002 -1.998,-4.847 1.593,0.869 2.435,2.734 2.445,4.711 -0.148,0.045 -0.298,0.091 -0.447,0.136 z"
         id="path3828"
         inkscape:connector-curvature="0" />
    </g>
  </g>
</svg>
