<?xml version="1.0" encoding="UTF-8" standalone="no"?>
<svg
   xmlns:dc="http://purl.org/dc/elements/1.1/"
   xmlns:cc="http://creativecommons.org/ns#"
   xmlns:rdf="http://www.w3.org/1999/02/22-rdf-syntax-ns#"
   xmlns:svg="http://www.w3.org/2000/svg"
   xmlns="http://www.w3.org/2000/svg"
   xmlns:sodipodi="http://sodipodi.sourceforge.net/DTD/sodipodi-0.dtd"
   xmlns:inkscape="http://www.inkscape.org/namespaces/inkscape"
   viewBox="0 0 100 100"
   version="1.1"
   x="0px"
   y="0px"
   id="svg3834"
   sodipodi:docname="noun_stick_1643205_2.svg"
   inkscape:version="0.92.4 5da689c313, 2019-01-14">
  <metadata
     id="metadata3840">
    <rdf:RDF>
      <cc:Work
         rdf:about="">
        <dc:format>image/svg+xml</dc:format>
        <dc:type
           rdf:resource="http://purl.org/dc/dcmitype/StillImage" />
        <dc:title>stick</dc:title>
      </cc:Work>
    </rdf:RDF>
  </metadata>
  <defs
     id="defs3838" />
  <sodipodi:namedview
     pagecolor="#ffffff"
     bordercolor="#666666"
     borderopacity="1"
     objecttolerance="10"
     gridtolerance="10"
     guidetolerance="10"
     inkscape:pageopacity="0"
     inkscape:pageshadow="2"
     inkscape:window-width="1920"
     inkscape:window-height="1016"
     id="namedview3836"
     showgrid="false"
     inkscape:zoom="3.337544"
     inkscape:cx="32.537604"
     inkscape:cy="17.981403"
     inkscape:window-x="0"
     inkscape:window-y="27"
     inkscape:window-maximized="1"
     inkscape:current-layer="g3830"
     inkscape:snap-center="false" />
  <title
     id="title3824">stick</title>
  <g
     id="g3832"
     transform="translate(-5.9006792,-0.41408189)"
     style="fill:none;fill-rule:evenodd;stroke:none;stroke-width:1">
    <g
       id="g3830"
       style="fill:#ffffff">
      <path
         d="m 41.484262,40.211308 c 1.373334,4.117176 1.062651,11.528767 -2.216171,16.068496 -5.654538,8.844293 -12.827656,16.889474 -18.8932,24.3501 -3.603469,4.8334 1.683082,8.035138 3.023727,8.958781 1.838809,1.368074 3.064411,1.388164 4.309004,0.134605 C 41.675335,73.298598 50.871297,61.098067 63.431551,45.734025 71.041341,35.953072 82.518167,36.813227 89.67365,35.688426 91.184063,35.476228 91.729558,31.97361 92.389624,30.092597 93.174788,26.724365 84.783853,29.143526 81.282175,29.672179 79.5775,29.915991 77.684393,29.952518 78.474825,26.848735 79.433812,22.665334 91.74825,14.370496 86.836217,11.906208 83.08606,9.7724055 80.32141,8.5534646 76.997582,12.889015 67.649364,23.377409 61.084543,33.815818 52.452021,42.27517 c -2.195254,2.611119 -5.080758,-2.567926 -6.459063,-4.713585 -2.569449,-4.228216 -6.076291,-1.795206 -4.508696,2.649723 z m 49.84089,-29.385422 c 1.925237,1.945407 0.750466,4.424866 -1.467059,7.646256 -1.442,2.217 -4.48105,4.677797 -6.25605,7.242797 5.45005,-1.006367 12.605931,-3.328192 12.555254,2.224593 -0.353797,3.38 -0.365023,3.651743 -1.441159,7.478268 -0.783729,3.616238 -2.062638,3.837393 -2.883638,3.935393 -12.244148,1.613224 -19.620342,1.414243 -27.174628,11.311254 -4.541846,5.504625 -23.145578,29.17386 -34.842349,42.545153 -1.667555,2.160878 -5.403108,1.670898 -7.208108,0.471895 -1.872,-1.243 -3.778035,-2.350033 -5.517001,-4.293728 -4.306787,-4.813825 -1.71188,-9.06227 4.179107,-15.979365 6.32704,-7.765366 15.393801,-17.894364 16.738704,-24.578382 1.101086,-7.473125 -0.841344,-7.299805 -0.749773,-12.239629 0.510776,-5.049635 5.56848,-6.351733 8.119651,-5.155401 2.961793,1.385956 4.441569,5.833777 5.761211,6.342798 1.197848,-0.587243 20.290971,-24.870109 23.123921,-27.9300007 6.434644,-8.0387051 15.434617,-1.065504 17.061917,0.9780987 z"
         id="path3826"
         inkscape:connector-curvature="0"
         sodipodi:nodetypes="ccccccccccccccccccccccccsccccccc" />
    </g>
  </g>
</svg>
